<svg width="40" height="40" viewBox="0 0 40 40" fill="none" xmlns="http://www.w3.org/2000/svg">
<path d="M33.6939 9.18809C33.6154 7.1266 35.4144 5.29441 36.2475 4.55968C36.4878 4.34768 36.8408 4.33424 37.0965 4.52732C37.983 5.19654 39.9161 6.8866 39.9946 8.94817C40.0965 11.6267 38.7375 13.0303 36.9976 13.0966C35.2578 13.1628 33.7959 11.8666 33.6939 9.18809Z" fill="#F3D69E"/>
<path d="M25.2286 13.2929C27.6259 13.3786 29.5963 15.6218 30.3769 16.6508C30.602 16.9476 30.5874 17.3582 30.3415 17.6382C29.4895 18.6088 27.3639 20.7056 24.9666 20.6199C21.8518 20.5085 20.3407 18.8122 20.413 16.7889C20.4854 14.7656 22.1138 13.1815 25.2286 13.2929Z" fill="#EFCB83"/>
<path d="M16.4364 22.2006C16.4364 24.5994 14.265 26.6488 13.2646 27.4656C12.976 27.7012 12.5652 27.7012 12.2767 27.4656C11.2763 26.6488 9.10486 24.5994 9.10486 22.2006C9.10486 19.0838 10.7461 17.5131 12.7707 17.5131C14.7952 17.5131 16.4364 19.0838 16.4364 22.2006Z" fill="#F3D69E"/>
<path d="M38.8232 23.5707C40.1075 25.5967 39.3708 28.4902 38.9632 29.7157C38.8456 30.0692 38.4987 30.2891 38.1287 30.2446C36.8464 30.0903 33.9153 29.5221 32.6309 27.4961C30.9621 24.8637 31.5073 22.6583 33.2172 21.5743C34.9272 20.4904 37.1543 20.9383 38.8232 23.5707Z" fill="#F3D69E"/>
<path d="M29.6161 6.68826C28.2695 7.94187 25.9843 7.79394 25.0029 7.65921C24.7198 7.62034 24.5052 7.38975 24.4866 7.1046C24.4223 6.11611 24.4379 3.82629 25.7845 2.57261C27.5341 0.943799 29.2736 1.04424 30.3316 2.18074C31.3897 3.31724 31.3658 5.05937 29.6161 6.68826Z" fill="#F3D69E"/>
<path d="M30.3318 2.18051C29.5593 1.35073 28.4235 1.07427 27.1858 1.61882C27.4543 1.75878 27.7003 1.94743 27.9173 2.18051C28.9754 3.31701 28.9514 5.05922 27.2017 6.68803C26.5925 7.25512 25.7914 7.53487 25.0056 7.6593C25.9883 7.79387 28.2707 7.94059 29.6162 6.68803C31.3659 5.05914 31.3898 3.31701 30.3318 2.18051Z" fill="#EFCB83"/>
<path d="M22.0312 31.3657C21.1761 29.4883 22.145 27.1104 22.6367 26.1145C22.7786 25.8271 23.1 25.6807 23.4099 25.7623C24.4841 26.0449 26.9141 26.8747 27.7692 28.752C28.8803 31.1914 28.1558 33.0058 26.5713 33.7276C24.9869 34.4493 23.1424 33.8051 22.0312 31.3657Z" fill="#DBB56A"/>
<path d="M17.7184 33.0689C19.0231 34.2779 19.0433 36.4917 18.9833 37.4475C18.966 37.7233 18.759 37.9467 18.4854 37.9848C17.5369 38.1173 15.328 38.2655 14.0232 37.0565C12.328 35.4856 12.3009 33.8014 13.3213 32.7002C14.3417 31.599 16.0232 31.498 17.7184 33.0689Z" fill="#DBB56A"/>
<path d="M35.0033 39.6985C33.3398 40.3286 31.3485 39.3611 30.5193 38.8819C30.2801 38.7437 30.1722 38.4588 30.2598 38.1968C30.5635 37.2886 31.4141 35.2445 33.0775 34.6145C35.2388 33.7958 36.7591 34.5214 37.2909 35.9253C37.8227 37.3291 37.1645 38.8798 35.0033 39.6985Z" fill="#F3D69E"/>
<path d="M5.60179 3.25006C5.80871 5.01674 4.38634 6.71323 3.72002 7.40112C3.52783 7.59959 3.22529 7.635 2.99246 7.48635C2.18521 6.9711 0.409195 5.64925 0.202274 3.88257C-0.0666197 1.58712 1.00662 0.288768 2.49765 0.114039C3.98867 -0.0606087 5.3329 0.954602 5.60179 3.25006Z" fill="#F5DEB2"/>
<path d="M8.5444 33.769C8.34923 35.8228 6.32339 37.4005 5.40041 38.0185C5.13418 38.1968 4.78247 38.1634 4.55454 37.9381C3.76452 37.1573 2.07221 35.2261 2.26738 33.1725C2.52098 30.504 4.05394 29.2928 5.78729 29.4575C7.52065 29.6222 8.798 31.1005 8.5444 33.769Z" fill="#DBB56A"/>
<path d="M5.7563 18.6579C4.04355 19.8078 1.5394 19.2399 0.476625 18.9171C0.169986 18.824 -0.0268755 18.5307 0.00298362 18.2117C0.106646 17.1058 0.528859 14.5731 2.24162 13.4231C4.46705 11.9289 6.37538 12.3478 7.34592 13.7934C8.31646 15.2389 7.98174 17.1638 5.7563 18.6579Z" fill="#DBB56A"/>
<path d="M11.1408 5.75064C12.1263 3.75354 14.776 2.93953 15.9445 2.67048C16.2815 2.59289 16.6235 2.76158 16.767 3.07635C17.2643 4.16738 18.2302 6.76553 17.2447 8.76263C15.9642 11.3575 13.9525 11.9909 12.2669 11.1592C10.5815 10.3275 9.86035 8.34549 11.1408 5.75064Z" fill="#DBB56A"/>
<path d="M39.9946 8.94834C39.9161 6.88685 37.983 5.19679 37.0965 4.52758C36.8407 4.3345 36.4877 4.34794 36.2475 4.55985C36.0519 4.7324 35.8029 4.96597 35.5376 5.24822C36.4506 6.10383 37.5221 7.42432 37.5801 8.94834C37.6594 11.0304 36.8557 12.3417 35.6768 12.8537C36.0832 13.0329 36.5302 13.1145 36.9976 13.0968C38.7375 13.0305 40.0966 11.6269 39.9946 8.94834Z" fill="#EFCB83"/>
<path d="M30.3767 16.6509C29.5961 15.6219 27.6258 13.3787 25.2285 13.293C24.639 13.2719 24.1029 13.3118 23.6204 13.4037C25.6472 13.8783 27.2711 15.7399 27.9623 16.6509C28.1874 16.9477 28.1728 17.3582 27.9269 17.6383C27.2221 18.4411 25.6457 20.0133 23.7651 20.4847C24.1352 20.5576 24.5349 20.6045 24.9664 20.6199C27.3637 20.7056 29.4893 18.6088 30.3413 17.6383C30.5873 17.3582 30.6019 16.9477 30.3767 16.6509Z" fill="#EDC472"/>
<path d="M12.7707 17.5131C12.3476 17.5131 11.9417 17.5827 11.5635 17.7196C12.9947 18.2381 14.0221 19.7352 14.0221 22.2006C14.0221 24.1204 12.6317 25.8155 11.5635 26.835C11.8301 27.0894 12.077 27.3024 12.2767 27.4657C12.5653 27.7013 12.9761 27.7013 13.2646 27.4657C14.265 26.6488 16.4365 24.5995 16.4365 22.2007C16.4365 19.0838 14.7953 17.5131 12.7707 17.5131Z" fill="#EFCB83"/>
<path d="M38.8232 23.571C37.3512 21.249 35.4449 20.6275 33.8422 21.257C34.7461 21.6046 35.6372 22.3539 36.4087 23.571C37.693 25.597 36.9563 28.4905 36.5487 29.716C36.5238 29.7908 36.4883 29.859 36.4448 29.9206C37.1062 30.0981 37.7069 30.1942 38.1288 30.2449C38.4987 30.2894 38.8456 30.0696 38.9632 29.716C39.3708 28.4904 40.1076 25.597 38.8232 23.571Z" fill="#EFCB83"/>
<path d="M27.8609 28.7766C26.9988 26.8839 24.5492 26.0475 23.4663 25.7626C23.1538 25.6804 22.8298 25.828 22.6868 26.1176C22.6577 26.1764 22.6269 26.2405 22.595 26.3086C23.6729 26.7869 24.875 27.5651 25.4268 28.7766C26.547 31.2356 25.8165 33.0648 24.2192 33.7923C24.2119 33.7957 24.2044 33.7985 24.1971 33.8018C24.9984 34.1752 25.8582 34.1545 26.6532 33.7923C28.2507 33.0648 28.981 31.2357 27.8609 28.7766Z" fill="#CBA863"/>
<path d="M17.7184 33.069C16.3569 31.8074 15.0047 31.6249 13.9962 32.172C14.4237 32.3662 14.8633 32.6606 15.3039 33.069C16.6086 34.2779 16.6288 36.4918 16.5689 37.4476C16.552 37.7176 16.3526 37.9363 16.0874 37.9812C17.0286 38.138 17.9545 38.0591 18.4855 37.985C18.7591 37.9467 18.9661 37.7234 18.9834 37.4476C19.0433 36.4918 19.0231 34.278 17.7184 33.069Z" fill="#CBA863"/>
<path d="M37.2908 35.9252C36.793 34.6111 35.429 33.8916 33.4841 34.4763C34.1466 34.744 34.6234 35.2576 34.8763 35.9252C35.408 37.3291 34.75 38.8798 32.5886 39.6984C32.5644 39.7076 32.5399 39.7153 32.5156 39.7238C33.3082 39.9331 34.1943 40.0048 35.0031 39.6984C37.1645 38.8798 37.8226 37.3291 37.2908 35.9252Z" fill="#EFCB83"/>
<path d="M5.60192 3.25005C5.33303 0.954682 3.9888 -0.0606099 2.49778 0.114038C2.17078 0.152348 1.86389 0.244823 1.58679 0.389853C2.39935 0.832428 3.01488 1.7773 3.18743 3.25005C3.3414 4.56426 2.59379 5.83927 1.92643 6.68949C2.3274 7.03967 2.71661 7.31017 2.99259 7.48635C3.22542 7.635 3.52796 7.59951 3.72015 7.40112C4.38647 6.71323 5.80884 5.01673 5.60192 3.25005Z" fill="#F3D69E"/>
<path d="M5.78739 29.4575C5.26215 29.4075 4.7556 29.4848 4.29716 29.6899C5.5333 30.2219 6.3358 31.6035 6.13 33.769C5.98916 35.2505 4.8958 36.4843 3.95093 37.2888C4.17523 37.5511 4.3857 37.7711 4.55471 37.9381C4.78264 38.1633 5.13427 38.1968 5.40058 38.0185C6.32356 37.4006 8.3494 35.8228 8.54457 33.769C8.79809 31.1005 7.52075 29.6222 5.78739 29.4575Z" fill="#CBA863"/>
<path d="M7.34172 13.7485C6.57609 12.6081 5.31484 12.1386 3.69118 12.6941C4.21714 12.9152 4.57537 13.2535 4.90768 13.7485C5.88611 15.2058 5.54865 17.1462 3.30519 18.6525C2.85601 18.954 2.35283 19.1376 1.83533 19.2396C3.03702 19.4281 4.57062 19.437 5.73923 18.6525C7.98269 17.1461 8.32016 15.2058 7.34172 13.7485Z" fill="#CBA863"/>
<path d="M16.7694 3.09067C16.6247 2.7734 16.28 2.60326 15.9402 2.68149C15.5448 2.77252 14.9809 2.92592 14.3688 3.16511C14.8782 4.30459 15.7888 6.85332 14.8168 8.82298C14.1671 10.1397 13.3306 10.8618 12.4432 11.2403C14.097 11.9277 16.0129 11.3318 17.2509 8.82298C18.2444 6.8097 17.2707 4.19055 16.7694 3.09067Z" fill="#CBA863"/>
</svg>
