<svg width="70" height="70" viewBox="0 0 70 70" fill="none" xmlns="http://www.w3.org/2000/svg">
<path d="M6.85128 30.6961C6.56698 29.6353 6.56694 28.5184 6.85117 27.4576C7.13539 26.3969 7.69385 25.4296 8.47043 24.6531L24.6524 8.47089C25.4289 7.69431 26.3962 7.13584 27.457 6.85161C28.5177 6.56738 29.6346 6.56742 30.6954 6.85173L45.8377 10.9091C45.9953 8.83467 46.7175 6.84284 47.9262 5.1494L29.6883 0.26304C28.3793 -0.0876875 27.001 -0.0876803 25.692 0.263063C24.3829 0.613808 23.1892 1.30293 22.2309 2.26118L2.26115 22.2312C1.30291 23.1895 0.613799 24.3832 0.263061 25.6922C-0.0876792 27.0013 -0.0876868 28.3796 0.263038 29.6887L5.33731 48.6262C6.99611 47.3594 8.97102 46.5726 11.0465 46.352L6.85128 30.6961Z" fill="white"/>
<path d="M58.8133 23.1247L63.1486 39.3038C63.433 40.3648 63.4327 41.4815 63.1486 42.5421C62.8642 43.6031 62.3056 44.5703 61.5291 45.3468L45.3471 61.5294C44.5705 62.3059 43.6034 62.8641 42.5424 63.1485C41.4819 63.4326 40.3647 63.4326 39.3041 63.1485L23.6484 58.9533C23.4279 61.0289 22.6412 63.0039 21.3743 64.6625L40.3116 69.7369C41.6205 70.0877 42.9989 70.0877 44.3078 69.7369C45.6171 69.386 46.8106 68.6972 47.769 67.7387L67.7387 47.7687C68.6972 46.8103 69.386 45.6168 69.7369 44.3075C70.0877 42.9986 70.0877 41.6201 69.7369 40.3112L64.4712 20.6648C62.8475 21.9901 60.8896 22.8413 58.8133 23.1247Z" fill="white"/>
<path d="M5.7926 51.2379C4.51008 52.5203 3.63667 54.1546 3.28282 55.9333C2.92897 57.7123 3.11057 59.5563 3.80467 61.232C4.49873 62.9074 5.67413 64.3398 7.18217 65.3476C8.69025 66.355 10.4632 66.8931 12.277 66.8931C14.0907 66.8931 15.8637 66.355 17.3718 65.3476C18.8798 64.3398 20.0552 62.9074 20.7493 61.232C21.4434 59.5563 21.625 57.7123 21.2711 55.9333C20.9173 54.1546 20.0439 52.5203 18.7614 51.2379C17.0403 49.5208 14.7083 48.5563 12.277 48.5563C9.84572 48.5563 7.51371 49.5208 5.7926 51.2379Z" fill="white"/>
<path d="M50.7631 5.3199C49.4808 6.6024 48.607 8.23641 48.2535 10.0153C47.8996 11.7942 48.0811 13.6381 48.7752 15.3138C49.4694 16.9895 50.6446 18.4217 52.1525 19.4294C53.6608 20.4371 55.4337 20.9749 57.2473 20.9749C59.0613 20.9749 60.8342 20.4371 62.3425 19.4294C63.8504 18.4217 65.0256 16.9895 65.7197 15.3138C66.4139 13.6381 66.5954 11.7942 66.2415 10.0153C65.888 8.23641 65.0142 6.6024 63.7319 5.3199C62.011 3.60264 59.6787 2.63822 57.2473 2.63822C54.8163 2.63822 52.484 3.60264 50.7631 5.3199Z" fill="white"/>
<path d="M40.3826 59.3087C40.0142 59.3087 39.6478 59.2605 39.292 59.1652L24.9611 55.325C24.4833 52.7732 23.2453 50.4253 21.4096 48.5897C19.5739 46.7541 17.2261 45.5158 14.6744 45.0381L10.8346 30.7082C10.6442 29.9935 10.6448 29.2413 10.8362 28.5268C11.0277 27.8123 11.4033 27.1606 11.9256 26.6368L26.6346 11.9272C27.1578 11.4039 27.8095 11.0276 28.5243 10.8361C29.2391 10.6446 29.9917 10.6447 30.7064 10.8362L44.6355 14.5686C45.188 17.1046 46.4935 19.4145 48.3811 21.196C50.2687 22.9774 52.6504 24.1472 55.2139 24.5521L59.163 39.2939C59.3533 40.009 59.3529 40.7612 59.1611 41.4755C58.9697 42.1901 58.5942 42.8417 58.0717 43.3658L43.3626 58.075C42.9723 58.4672 42.5075 58.7786 41.996 58.9901C41.4845 59.202 40.9362 59.3102 40.3826 59.3087Z" fill="white"/>
</svg>
