<svg width="18" height="18" viewBox="0 0 18 18" fill="none" xmlns="http://www.w3.org/2000/svg">
    <path
        d="M7.33329 13.1666H8.16663V14C8.16663 14.221 8.25442 14.4329 8.4107 14.5892C8.56698 14.7455 8.77895 14.8333 8.99996 14.8333C9.22097 14.8333 9.43293 14.7455 9.58922 14.5892C9.7455 14.4329 9.83329 14.221 9.83329 14V13.1666H10.6666C10.8876 13.1666 11.0996 13.0788 11.2559 12.9225C11.4122 12.7663 11.5 12.5543 11.5 12.3333C11.5 12.1123 11.4122 11.9003 11.2559 11.744C11.0996 11.5878 10.8876 11.5 10.6666 11.5H9.83329V10.6666C9.83329 10.4456 9.7455 10.2337 9.58922 10.0774C9.43293 9.92109 9.22097 9.83329 8.99996 9.83329C8.77895 9.83329 8.56698 9.92109 8.4107 10.0774C8.25442 10.2337 8.16663 10.4456 8.16663 10.6666V11.5H7.33329C7.11228 11.5 6.90032 11.5878 6.74404 11.744C6.58776 11.9003 6.49996 12.1123 6.49996 12.3333C6.49996 12.5543 6.58776 12.7663 6.74404 12.9225C6.90032 13.0788 7.11228 13.1666 7.33329 13.1666ZM14.8333 3.99996H13.1666V3.16663C13.1666 2.50358 12.9032 1.8677 12.4344 1.39886C11.9656 0.930018 11.3297 0.666626 10.6666 0.666626H7.33329C6.67025 0.666626 6.03437 0.930018 5.56553 1.39886C5.09668 1.8677 4.83329 2.50358 4.83329 3.16663V3.99996H3.16663C2.50358 3.99996 1.8677 4.26335 1.39886 4.73219C0.930018 5.20103 0.666626 5.83692 0.666626 6.49996V14.8333C0.666626 15.4963 0.930018 16.1322 1.39886 16.6011C1.8677 17.0699 2.50358 17.3333 3.16663 17.3333H14.8333C15.4963 17.3333 16.1322 17.0699 16.6011 16.6011C17.0699 16.1322 17.3333 15.4963 17.3333 14.8333V6.49996C17.3333 5.83692 17.0699 5.20103 16.6011 4.73219C16.1322 4.26335 15.4963 3.99996 14.8333 3.99996ZM6.49996 3.16663C6.49996 2.94561 6.58776 2.73365 6.74404 2.57737C6.90032 2.42109 7.11228 2.33329 7.33329 2.33329H10.6666C10.8876 2.33329 11.0996 2.42109 11.2559 2.57737C11.4122 2.73365 11.5 2.94561 11.5 3.16663V3.99996H6.49996V3.16663ZM15.6666 14.8333C15.6666 15.0543 15.5788 15.2663 15.4225 15.4225C15.2663 15.5788 15.0543 15.6666 14.8333 15.6666H3.16663C2.94561 15.6666 2.73365 15.5788 2.57737 15.4225C2.42109 15.2663 2.33329 15.0543 2.33329 14.8333V8.99996H15.6666V14.8333ZM15.6666 7.33329H2.33329V6.49996C2.33329 6.27895 2.42109 6.06698 2.57737 5.9107C2.73365 5.75442 2.94561 5.66663 3.16663 5.66663H14.8333C15.0543 5.66663 15.2663 5.75442 15.4225 5.9107C15.5788 6.06698 15.6666 6.27895 15.6666 6.49996V7.33329Z"
        fill="white" />
</svg>
