<svg width="18" height="17" viewBox="0 0 18 17" fill="none" xmlns="http://www.w3.org/2000/svg">
<path d="M9.74769 9.47569L16.4245 9.48099C16.6243 9.48099 16.8158 9.40165 16.957 9.26042C17.0983 9.11919 17.1776 8.92765 17.1776 8.72792C17.1776 8.5282 17.0983 8.33665 16.957 8.19542C16.8158 8.05419 16.6243 7.97485 16.4246 7.97485L9.74769 7.98016L9.753 1.3033C9.753 1.10358 9.67366 0.912029 9.53243 0.770801C9.3912 0.629574 9.19965 0.550233 8.99993 0.550233C8.8002 0.550233 8.60866 0.629574 8.46743 0.770801C8.3262 0.912029 8.24686 1.10358 8.24686 1.3033L8.25216 7.98016L1.57531 7.97485C1.4763 7.97445 1.37819 7.99365 1.28664 8.03135C1.19509 8.06905 1.11191 8.12451 1.0419 8.19452C0.971893 8.26453 0.916438 8.34771 0.878737 8.43926C0.841035 8.53081 0.821834 8.62891 0.82224 8.72792C0.821834 8.82693 0.841035 8.92504 0.878736 9.01659C0.916438 9.10814 0.971894 9.19132 1.0419 9.26133C1.11191 9.33134 1.19509 9.38679 1.28664 9.42449C1.37819 9.4622 1.4763 9.4814 1.57531 9.48099L8.25216 9.47569L8.24686 16.1525C8.24646 16.2516 8.26566 16.3497 8.30336 16.4412C8.34106 16.5328 8.39652 16.6159 8.46652 16.6859C8.53653 16.756 8.61971 16.8114 8.71126 16.8491C8.80281 16.8868 8.90092 16.906 8.99993 16.9056C9.09894 16.906 9.19705 16.8868 9.2886 16.8491C9.38015 16.8114 9.46332 16.756 9.53333 16.6859C9.60334 16.6159 9.6588 16.5328 9.6965 16.4412C9.7342 16.3497 9.7534 16.2516 9.753 16.1525L9.74769 9.47569Z" fill="black"/>
</svg>
