<svg width="32" height="32" viewBox="0 0 32 32" fill="none" xmlns="http://www.w3.org/2000/svg">
<circle cx="16" cy="16" r="15" fill="white"/>
<circle cx="16" cy="16" r="15.5" stroke="black" stroke-opacity="0.2"/>
<path d="M15.9501 1C9.4501 1 3.9001 5.2 1.8501 11H30.1501C28.0501 5.2 22.5001 1 15.9501 1Z" fill="#F9F9F9"/>
<path d="M15.9501 31.0002C22.5001 31.0002 28.0501 26.8002 30.1001 21.0002H1.8501C3.9001 26.8502 9.4501 31.0002 15.9501 31.0002Z" fill="#ED4C5C"/>
<path d="M1.85 10.9998C1.3 12.5498 1 14.2498 1 15.9998C1 17.7498 1.3 19.4498 1.85 20.9998H30.15C30.7 19.4498 31 17.7498 31 15.9998C31 14.2498 30.7 12.5498 30.15 10.9998H1.85Z" fill="#428BC1"/>
</svg>
