<svg width="17" height="17" viewBox="0 0 17 17" fill="none" xmlns="http://www.w3.org/2000/svg">
<path d="M11.5241 14.8333H15.625C15.8349 14.8333 16.0363 14.7499 16.1848 14.6014C16.3332 14.453 16.4166 14.2516 16.4166 14.0416C16.4166 13.8317 16.3332 13.6303 16.1848 13.4818C16.0363 13.3334 15.8349 13.25 15.625 13.25H11.5241C11.3577 12.7915 11.0542 12.3953 10.6547 12.1154C10.2553 11.8354 9.77939 11.6853 9.29163 11.6853C8.80386 11.6853 8.32793 11.8354 7.92851 12.1154C7.52908 12.3953 7.22554 12.7915 7.05912 13.25H1.37496C1.165 13.25 0.963631 13.3334 0.815165 13.4818C0.666698 13.6303 0.583291 13.8317 0.583291 14.0416C0.583291 14.2516 0.666698 14.453 0.815165 14.6014C0.963631 14.7499 1.165 14.8333 1.37496 14.8333H7.05912C7.22554 15.2918 7.52908 15.6879 7.92851 15.9679C8.32793 16.2478 8.80386 16.398 9.29163 16.398C9.77939 16.398 10.2553 16.2478 10.6547 15.9679C11.0542 15.6879 11.3577 15.2918 11.5241 14.8333ZM8.49996 14.0416C8.49996 13.8851 8.54639 13.732 8.63338 13.6018C8.72037 13.4716 8.84401 13.3702 8.98867 13.3102C9.13333 13.2503 9.2925 13.2346 9.44607 13.2652C9.59964 13.2957 9.7407 13.3711 9.85142 13.4818C9.96213 13.5926 10.0375 13.7336 10.0681 13.8872C10.0986 14.0408 10.0829 14.1999 10.023 14.3446C9.96311 14.4893 9.86164 14.6129 9.73145 14.6999C9.60126 14.7869 9.4482 14.8333 9.29163 14.8333C9.08166 14.8333 8.8803 14.7499 8.73183 14.6014C8.58337 14.453 8.49996 14.2516 8.49996 14.0416ZM6.77413 9.29164H15.625C15.8349 9.29164 16.0363 9.20823 16.1848 9.05977C16.3332 8.9113 16.4166 8.70994 16.4166 8.49997C16.4166 8.29001 16.3332 8.08865 16.1848 7.94018C16.0363 7.79171 15.8349 7.70831 15.625 7.70831H6.77413C6.60771 7.24981 6.30417 6.85367 5.90474 6.57372C5.50532 6.29377 5.02939 6.1436 4.54163 6.1436C4.05386 6.1436 3.57793 6.29377 3.17851 6.57372C2.77908 6.85367 2.47554 7.24981 2.30912 7.70831H1.37496C1.165 7.70831 0.963631 7.79171 0.815165 7.94018C0.666698 8.08865 0.583291 8.29001 0.583291 8.49997C0.583291 8.70994 0.666698 8.9113 0.815165 9.05977C0.963631 9.20823 1.165 9.29164 1.37496 9.29164H2.30912C2.47554 9.75014 2.77908 10.1463 3.17851 10.4262C3.57793 10.7062 4.05386 10.8563 4.54163 10.8563C5.02939 10.8563 5.50532 10.7062 5.90474 10.4262C6.30417 10.1463 6.60771 9.75014 6.77413 9.29164ZM3.74996 8.49997C3.74996 8.3434 3.79639 8.19034 3.88338 8.06015C3.97037 7.92996 4.09401 7.82849 4.23867 7.76857C4.38333 7.70865 4.5425 7.69297 4.69607 7.72352C4.84964 7.75406 4.9907 7.82946 5.10142 7.94018C5.21214 8.0509 5.28753 8.19196 5.31808 8.34553C5.34863 8.49909 5.33295 8.65827 5.27303 8.80293C5.21311 8.94759 5.11164 9.07123 4.98145 9.15822C4.85126 9.24521 4.6982 9.29164 4.54163 9.29164C4.33166 9.29164 4.1303 9.20823 3.98183 9.05977C3.83336 8.9113 3.74996 8.70994 3.74996 8.49997ZM13.1075 3.74997H15.625C15.8349 3.74997 16.0363 3.66657 16.1848 3.5181C16.3332 3.36963 16.4166 3.16827 16.4166 2.95831C16.4166 2.74834 16.3332 2.54698 16.1848 2.39851C16.0363 2.25005 15.8349 2.16664 15.625 2.16664H13.1075C12.941 1.70814 12.6375 1.312 12.2381 1.03206C11.8387 0.752108 11.3627 0.601929 10.875 0.601929C10.3872 0.601929 9.91126 0.752108 9.51184 1.03206C9.11241 1.312 8.80887 1.70814 8.64246 2.16664H1.37496C1.165 2.16664 0.963631 2.25005 0.815165 2.39851C0.666698 2.54698 0.583291 2.74834 0.583291 2.95831C0.583291 3.16827 0.666698 3.36963 0.815165 3.5181C0.963631 3.66657 1.165 3.74997 1.37496 3.74997H8.64246C8.80887 4.20847 9.11241 4.60461 9.51184 4.88456C9.91126 5.1645 10.3872 5.31468 10.875 5.31468C11.3627 5.31468 11.8387 5.1645 12.2381 4.88456C12.6375 4.60461 12.941 4.20847 13.1075 3.74997ZM10.0833 2.95831C10.0833 2.80173 10.1297 2.64867 10.2167 2.51848C10.3037 2.38829 10.4273 2.28682 10.572 2.2269C10.7167 2.16698 10.8758 2.1513 11.0294 2.18185C11.183 2.2124 11.324 2.2878 11.4348 2.39851C11.5455 2.50923 11.6209 2.65029 11.6514 2.80386C11.682 2.95743 11.6663 3.11661 11.6064 3.26126C11.5464 3.40592 11.445 3.52956 11.3148 3.61655C11.1846 3.70354 11.0315 3.74997 10.875 3.74997C10.665 3.74997 10.4636 3.66657 10.3152 3.5181C10.1667 3.36963 10.0833 3.16827 10.0833 2.95831Z" fill="black" fill-opacity="0.8"/>
</svg>
