<svg width="24" height="24" viewBox="0 0 24 24" fill="none" xmlns="http://www.w3.org/2000/svg">
<path d="M19 4H5C4.73478 4 4.48043 3.89464 4.29289 3.70711C4.10536 3.51957 4 3.26522 4 3C4 2.73478 4.10536 2.48043 4.29289 2.29289C4.48043 2.10536 4.73478 2 5 2H19C19.2652 2 19.5196 2.10536 19.7071 2.29289C19.8946 2.48043 20 2.73478 20 3C20 3.26522 19.8946 3.51957 19.7071 3.70711C19.5196 3.89464 19.2652 4 19 4ZM11.29 6.29C11.3851 6.19896 11.4972 6.12759 11.62 6.08C11.7397 6.02709 11.8691 5.99977 12 5.99977C12.1309 5.99977 12.2603 6.02709 12.38 6.08C12.5028 6.12759 12.6149 6.19896 12.71 6.29L16.71 10.29C16.8983 10.4783 17.0041 10.7337 17.0041 11C17.0041 11.2663 16.8983 11.5217 16.71 11.71C16.5217 11.8983 16.2663 12.0041 16 12.0041C15.7337 12.0041 15.4783 11.8983 15.29 11.71L13 9.41V21C13 21.2652 12.8946 21.5196 12.7071 21.7071C12.5196 21.8946 12.2652 22 12 22C11.7348 22 11.4804 21.8946 11.2929 21.7071C11.1054 21.5196 11 21.2652 11 21V9.41L8.71 11.71C8.61676 11.8032 8.50607 11.8772 8.38425 11.9277C8.26243 11.9781 8.13186 12.0041 8 12.0041C7.86814 12.0041 7.73757 11.9781 7.61575 11.9277C7.49393 11.8772 7.38324 11.8032 7.29 11.71C7.19676 11.6168 7.1228 11.5061 7.07234 11.3842C7.02188 11.2624 6.99591 11.1319 6.99591 11C6.99591 10.8681 7.02188 10.7376 7.07234 10.6158C7.1228 10.4939 7.19676 10.3832 7.29 10.29L11.29 6.29Z" fill="#FF4949"/>
</svg>
