<svg width="30" height="30" viewBox="0 0 30 30" fill="none" xmlns="http://www.w3.org/2000/svg">
<path d="M15.0003 0C8.65023 0 3.25019 3.95003 1.05017 9.50008H28.9504C26.7504 3.95003 21.3503 0 15.0003 0Z" fill="#42ADE2"/>
<path d="M15.0003 30.0001C21.3503 30.0001 26.7504 26.05 28.9504 20.5H1.05017C3.25019 26.05 8.65023 30.0001 15.0003 30.0001Z" fill="#83BF4F"/>
<path d="M30.0002 15C30.0002 13.45 29.7502 11.9 29.3002 10.5H0.700006C0.250002 11.9 0 13.45 0 15C0 16.55 0.250002 18.1001 0.700006 19.5001H29.3002C29.7502 18.1001 30.0002 16.55 30.0002 15Z" fill="white"/>
<path d="M28.9501 9.50024C29.0001 9.65025 29.1001 9.85025 29.1501 10.0002C29.2001 10.1502 29.2501 10.3503 29.3001 10.5003" fill="#C94747"/>
<path d="M29.1501 10.0005C29.1001 9.85049 29.0001 9.65049 28.9501 9.50049H1.04983C0.999831 9.65049 0.899831 9.85049 0.84983 10.0005C0.79983 10.1505 0.74983 10.3505 0.699829 10.5005H29.3001C29.2501 10.3505 29.2001 10.1505 29.1501 10.0005Z" fill="#C94747"/>
<path d="M0.84983 20C0.899831 20.15 0.999831 20.35 1.04983 20.5H28.9501C29.0001 20.35 29.1001 20.15 29.1501 20C29.2001 19.85 29.2501 19.65 29.3001 19.5H0.699829C0.74983 19.65 0.79983 19.85 0.84983 20Z" fill="#C94747"/>
<path d="M9.20003 7.65004C8.00002 7.65004 7.05001 6.70003 7.05001 5.50002C7.05001 4.30001 8.00002 3.35 9.20003 3.35C9.50003 3.35 9.75003 3.4 10 3.5C9.60003 3.2 9.05002 3 8.50002 3C7.10001 3 6 4.10001 6 5.50002C6 6.90003 7.10001 8.00004 8.50002 8.00004C9.05002 8.00004 9.60003 7.80004 10 7.50004C9.75003 7.60004 9.50003 7.65004 9.20003 7.65004Z" fill="white"/>
<path d="M11.35 6.59985L11.55 7.14986H12.1L11.65 7.44986L11.8 7.99987L11.35 7.64986L10.9 7.99987L11.1 7.44986L10.65 7.14986H11.2L11.35 6.59985Z" fill="white"/>
<path d="M13.5001 6.59985L13.6501 7.14986H14.2501L13.8001 7.44986L13.9501 7.99987L13.5001 7.64986L13.0501 7.99987L13.2001 7.44986L12.7501 7.14986H13.3001L13.5001 6.59985Z" fill="white"/>
<path d="M15.6502 6.59985L15.8002 7.14986H16.3502L15.9002 7.44986L16.1002 7.99987L15.6502 7.64986L15.1501 7.99987L15.3502 7.44986L14.9001 7.14986H15.4502L15.6502 6.59985Z" fill="white"/>
<path d="M17.75 6.59985L17.95 7.14986H18.5L18.05 7.44986L18.2 7.99987L17.75 7.64986L17.3 7.99987L17.45 7.44986L17 7.14986H17.6L17.75 6.59985Z" fill="white"/>
<path d="M19.9003 6.59985L20.0503 7.14986H20.6503L20.1503 7.44986L20.3503 7.99987L19.9003 7.64986L19.4503 7.99987L19.6003 7.44986L19.1503 7.14986H19.7003L19.9003 6.59985Z" fill="white"/>
<path d="M13.5001 4.80029L13.6501 5.3503H14.2501L13.8001 5.6503L13.9501 6.2003L13.5001 5.8503L13.0501 6.2003L13.2001 5.6503L12.7501 5.3503H13.3001L13.5001 4.80029Z" fill="white"/>
<path d="M15.6502 4.80029L15.8002 5.3503H16.3502L15.9002 5.6503L16.1002 6.2003L15.6502 5.8503L15.1501 6.2003L15.3502 5.6503L14.9001 5.3503H15.4502L15.6502 4.80029Z" fill="white"/>
<path d="M17.75 4.80029L17.95 5.3503H18.5L18.05 5.6503L18.2 6.2003L17.75 5.8503L17.3 6.2003L17.45 5.6503L17 5.3503H17.6L17.75 4.80029Z" fill="white"/>
<path d="M19.9003 4.80029L20.0503 5.3503H20.6503L20.1503 5.6503L20.3503 6.2003L19.9003 5.8503L19.4503 6.2003L19.6003 5.6503L19.1503 5.3503H19.7003L19.9003 4.80029Z" fill="white"/>
<path d="M15.6502 3L15.8002 3.55H16.3502L15.9002 3.85001L16.1002 4.40001L15.6502 4.05001L15.1501 4.40001L15.3502 3.85001L14.9001 3.55H15.4502L15.6502 3Z" fill="white"/>
<path d="M17.75 3L17.95 3.55H18.5L18.05 3.85001L18.2 4.40001L17.75 4.05001L17.3 4.40001L17.45 3.85001L17 3.55H17.6L17.75 3Z" fill="white"/>
<path d="M19.9003 3L20.0503 3.55H20.6503L20.1503 3.85001L20.3503 4.40001L19.9003 4.05001L19.4503 4.40001L19.6003 3.85001L19.1503 3.55H19.7003L19.9003 3Z" fill="white"/>
</svg>
